<svg width="155" height="50" viewBox="0 0 155 50" fill="none" xmlns="http://www.w3.org/2000/svg">
<path d="M40.2878 10.1956C40.0456 13.1399 38.1597 15.763 35.702 17.3343C33.3258 18.8527 26.639 21.5344 23.8615 22.2483C27.3232 21.0434 30.5135 19.1681 31.6105 18.4448C33.7309 17.0453 36.1381 15.7045 37.3321 13.4873C39.1172 10.3599 38.2004 6.18059 35.328 4.005C32.3761 1.65944 28.4357 2.30721 25.5361 4.44314C25.4857 4.47713 25.4373 4.51302 25.3869 4.54701C22.8963 6.32979 21.4523 9.18337 21.4523 12.1956V35.6795C21.4426 36.0365 21.3515 39.1658 20.7759 41.2809C20.774 41.2885 20.772 41.2942 20.7701 41.3017C20.7604 41.3376 20.7507 41.3754 20.7391 41.4112C20.7391 41.4131 20.7391 41.415 20.7371 41.415C20.7255 41.4585 20.7119 41.5038 20.6984 41.5453C20.6925 41.568 20.6848 41.5888 20.679 41.6095C20.677 41.6133 20.677 41.6171 20.6751 41.6209C20.6712 41.6341 20.6674 41.6473 20.6635 41.6605C20.6615 41.6643 20.6596 41.67 20.6596 41.6737C20.648 41.7077 20.6383 41.7417 20.6267 41.7757C20.6189 41.7965 20.6131 41.8173 20.6073 41.8362C20.6034 41.8494 20.5995 41.8607 20.5956 41.8739L20.584 41.906C20.5704 41.9495 20.5549 41.991 20.5414 42.0326C20.5336 42.0552 20.5259 42.0779 20.5181 42.0987C20.5142 42.11 20.5104 42.1213 20.5065 42.1327C20.4968 42.161 20.4871 42.1893 20.4774 42.2139C20.4735 42.2233 20.4716 42.2309 20.4677 42.2384C20.4638 42.2479 20.46 42.2573 20.4561 42.2667C20.4522 42.2781 20.4483 42.2875 20.4445 42.2989C20.4425 42.3045 20.4406 42.3121 20.4367 42.3177C20.4309 42.3347 20.4251 42.3517 20.4173 42.3668C20.4115 42.382 20.4057 42.3971 20.3999 42.4122C20.3941 42.4254 20.3883 42.4405 20.3824 42.4537C20.3805 42.4575 20.3786 42.4613 20.3786 42.4632C20.3747 42.4726 20.3708 42.482 20.3669 42.4915C20.3592 42.5123 20.3514 42.5311 20.3437 42.55C20.3185 42.6124 20.301 42.6539 20.2933 42.6728C20.27 42.7257 20.2487 42.7785 20.2254 42.8295L20.1906 42.9051C20.1789 42.9296 20.1692 42.9542 20.1576 42.9787C20.1363 43.0278 20.113 43.0732 20.0917 43.1185C20.084 43.1355 20.0762 43.1506 20.0684 43.1657C20.0626 43.1789 20.0549 43.1921 20.0491 43.2053C20.0491 43.2072 20.0471 43.2091 20.0471 43.2091C20.0471 43.211 20.0471 43.211 20.0452 43.211C20.0452 43.2129 20.0452 43.2129 20.0432 43.2129C20.0355 43.228 20.0297 43.2412 20.0219 43.2563C20.0142 43.2715 20.0064 43.2866 19.9987 43.2998C19.9948 43.3073 19.9909 43.3149 19.987 43.3224C19.9851 43.3281 19.9812 43.3338 19.9793 43.3394C19.9638 43.3697 19.9483 43.3999 19.9328 43.4282C19.8824 43.5226 19.8359 43.6095 19.7932 43.6832C19.5858 44.0495 19.3591 44.4046 19.1129 44.7464C19.0315 44.8578 18.9501 44.9692 18.8648 45.0807C17.229 47.2034 14.8837 48.7841 12.2865 49.5848C9.31139 50.5083 5.77997 49.8757 3.42117 47.8417C-1.64918 43.5453 -0.945612 36.1592 4.61705 32.6673C6.99135 31.1489 13.8487 28.5428 16.4576 27.7571C12.649 29.4247 9.9103 30.8581 8.70861 31.5569C4.24491 34.1536 0.430516 38.2102 2.81645 43.3092C5.26247 48.0967 10.5848 48.6424 14.783 45.5585C14.8333 45.5245 14.8818 45.4886 14.9322 45.4527C17.4228 43.6699 18.8668 40.8164 18.8668 37.8041V13.9028C18.8842 13.0851 18.9036 12.2957 19.0199 11.2796C19.0974 10.6111 19.1672 10.0219 19.3649 9.24758C19.5316 8.59414 19.7254 8.06158 19.8785 7.68387C19.8804 7.68009 19.8824 7.67631 19.8824 7.67254C20.0181 7.31749 20.175 6.96623 20.3572 6.61685C20.6053 6.15038 20.8883 5.69713 21.2023 5.25899C21.2837 5.14756 21.3651 5.03614 21.4504 4.92661C24.0205 1.60089 28.4376 -0.631357 32.6881 0.159939C37.3786 1.006 40.786 5.65747 40.2878 10.1956Z" fill="#20415D"/>
<path d="M32.3552 34.9564C32.3552 34.9564 26.6511 35.8798 25.0462 29.6666C25.0327 29.846 25.0249 30.0254 25.0249 30.2086C25.0249 34.1537 28.3063 37.351 32.3552 37.351C35.5281 37.351 38.2299 35.3869 39.2514 32.6372C37.7861 24.9131 32.3552 25.4589 32.3552 25.4589C35.0474 25.4589 37.2298 27.5854 37.2298 30.2086C37.2298 32.8299 35.0474 34.9564 32.3552 34.9564Z" fill="#20415D"/>
<mask id="mask0_3028_3721" style="mask-type:luminance" maskUnits="userSpaceOnUse" x="25" y="25" width="15" height="13">
<path d="M32.3552 34.9564C32.3552 34.9564 26.6511 35.8798 25.0462 29.6666C25.0327 29.846 25.0249 30.0254 25.0249 30.2086C25.0249 34.1537 28.3063 37.351 32.3552 37.351C35.5281 37.351 38.2299 35.3869 39.2514 32.6372C37.7861 24.9131 32.3552 25.4589 32.3552 25.4589C35.0474 25.4589 37.2298 27.5854 37.2298 30.2086C37.2298 32.8299 35.0474 34.9564 32.3552 34.9564Z" fill="white"/>
</mask>
<g mask="url(#mask0_3028_3721)">
<path d="M39.2514 24.9131H25.0249V37.351H39.2514V24.9131Z" fill="#20415D"/>
</g>
<path d="M27.4828 30.2086C27.4828 27.5854 29.6652 25.4589 32.3574 25.4589C32.3574 25.4589 37.7882 24.9131 39.2535 32.6372C39.5346 31.878 39.6877 31.0603 39.6877 30.2086C39.6877 26.2634 36.4063 23.0661 32.3574 23.0661C28.7 23.0661 25.6686 25.6761 25.1182 29.0887C25.6686 30.5221 26.692 32.3388 28.481 33.0848C27.853 32.286 27.4828 31.2888 27.4828 30.2086Z" fill="#20415D"/>
<mask id="mask1_3028_3721" style="mask-type:luminance" maskUnits="userSpaceOnUse" x="25" y="23" width="15" height="11">
<path d="M27.4828 30.2086C27.4828 27.5854 29.6652 25.4589 32.3574 25.4589C32.3574 25.4589 37.7882 24.9131 39.2535 32.6372C39.5346 31.878 39.6877 31.0603 39.6877 30.2086C39.6877 26.2634 36.4063 23.0661 32.3574 23.0661C28.7 23.0661 25.6686 25.6761 25.1182 29.0887C25.6686 30.5221 26.692 32.3388 28.481 33.0848C27.853 32.286 27.4828 31.2888 27.4828 30.2086Z" fill="white"/>
</mask>
<g mask="url(#mask1_3028_3721)">
<path d="M39.6852 23.0661H25.1157V33.0848H39.6852V23.0661Z" fill="#20415D"/>
</g>
<path d="M61.6239 13.1799C62.2693 13.1607 62.9438 13.1992 63.628 13.3052C64.3122 13.4207 64.8897 13.7174 65.3607 14.2144C65.8317 14.7114 66.074 15.5359 66.074 16.684C66.0158 17.8899 65.5836 18.8761 64.7638 19.6505C63.9361 20.4269 62.9922 21.0491 61.9127 21.4979C60.8331 21.9564 59.8911 22.3012 59.0519 22.5324L59.0325 27.0593V27.4715H56.3364V13.1799H59.0712H61.43C61.4882 13.1799 61.556 13.1799 61.6239 13.1799ZM59.0325 22.0527C59.831 21.9371 60.5249 21.6501 61.1316 21.2012C61.7382 20.7505 62.2286 20.2053 62.6143 19.5639C63 18.9224 63.2597 18.2616 63.4031 17.572C63.5485 16.8824 63.5582 16.2313 63.4322 15.638C63.3062 15.035 63.0271 14.5476 62.6143 14.1643C62.1898 13.781 61.6122 13.5903 60.8718 13.5903H59.0325V22.0527Z" fill="#20415D"/>
<path d="M74.7494 13.3321C75.3657 13.4477 75.8852 13.7155 76.3096 14.1258C76.7438 14.5477 76.9648 15.1988 76.9744 16.0887C76.9454 16.9883 76.55 17.8109 75.7902 18.5583C75.0207 19.2961 74.133 19.899 73.1038 20.3768C74.1447 20.2901 74.9141 20.5867 75.3967 21.2475C75.8871 21.8986 76.2437 22.7886 76.4666 23.8981C76.612 24.9884 76.7942 25.8803 77.0442 26.5392C77.2846 27.2095 77.1799 27.5158 76.736 27.4677L74.7222 27.458C74.261 27.4484 74.0284 26.8454 74.0284 25.6588C74.0187 24.4722 73.9218 23.5052 73.7396 22.7577C73.5477 22.0103 73.3248 21.4459 73.0651 21.0548C72.8151 20.6715 72.4197 20.5867 71.9002 20.8063C71.8615 20.8352 71.8227 20.8449 71.813 20.8545C71.7936 20.8641 71.7742 20.8738 71.7549 20.8834C71.7355 20.893 71.7064 20.9027 71.6676 20.9219C71.6289 20.9412 71.5707 20.9701 71.4951 21.0086C71.4176 21.0471 71.3032 21.0953 71.1676 21.1531C71.0319 21.2205 70.8594 21.2976 70.6578 21.392C70.4466 21.4979 70.1868 21.6116 69.8884 21.756V27.0593V27.4619H67.1826V13.1799H69.9271H72.2762C72.3731 13.1799 72.4584 13.1799 72.565 13.1799C72.691 13.1799 72.8151 13.1799 72.9604 13.1799C73.5361 13.1703 74.133 13.2185 74.7494 13.3321ZM69.8845 21.2783C70.5977 21.0683 71.2432 20.7428 71.8111 20.292C72.3886 19.8509 72.8616 19.3346 73.2453 18.7606C73.631 18.1769 73.9101 17.5932 74.0729 16.9903C74.2358 16.3873 74.2648 15.8325 74.1699 15.324C74.0729 14.8077 73.8229 14.3858 73.4275 14.0699C73.0321 13.7444 72.4642 13.5922 71.7219 13.5922H69.8825V21.2783H69.8845Z" fill="#20415D"/>
<path d="M85.4582 13.2474C86.6134 13.3437 87.7123 13.8599 88.54 14.6632C89.9374 15.9751 90.2727 18.2154 90.2824 20.0243C90.2727 21.4979 90.1002 22.7038 89.7726 23.6419C89.4451 24.5801 89.0303 25.3179 88.5206 25.8437C87.6736 26.7144 86.6521 27.2692 85.4291 27.3945C84.9678 27.4426 84.6403 27.4715 84.4368 27.4715C84.2255 27.4715 83.8979 27.4426 83.4347 27.3945C82.2214 27.2692 81.1418 26.6952 80.2948 25.8341C79.7851 25.3082 79.3606 24.5704 79.0233 23.6227C78.6861 22.6749 78.5136 21.4594 78.5039 19.9857C78.5136 18.148 78.8605 15.9751 80.2754 14.6536C81.1224 13.8599 82.2408 13.3418 83.4153 13.2474C83.8786 13.2088 84.2236 13.1799 84.4368 13.1799C84.6577 13.1799 84.995 13.2088 85.4582 13.2474ZM86.2374 26.0345C87.3072 24.4452 87.5185 21.9275 87.5379 20.0609C87.5476 18.8742 87.441 17.7916 87.2394 16.8246C86.9312 15.3606 86.1986 13.5883 84.4368 13.5883C81.605 13.5883 81.1903 17.8956 81.1903 19.9337C81.1903 22.0392 81.6903 26.9495 84.4368 27.0554C85.1888 27.04 85.7858 26.6952 86.2374 26.0345Z" fill="#20415D"/>
<path d="M95.5 25.9304C95.374 26.333 95.1531 26.6875 94.8158 26.9938C94.4786 27.3001 93.9979 27.4619 93.3815 27.4811C92.4279 27.5293 91.6953 27.4233 91.1662 27.1652C90.637 26.8975 90.3288 26.2367 90.2319 25.183H92.581C92.552 26.0056 92.6683 26.5623 92.9377 26.8493C93.2071 27.1363 93.4765 27.1941 93.7362 27.04C93.9959 26.8782 94.0928 26.5237 94.0444 25.9959C93.9862 25.4604 93.6199 24.7804 92.9474 23.9578L92.9377 13.1318L95.6628 13.1222L95.6822 24.8863C95.6938 25.183 95.626 25.5375 95.5 25.9304Z" fill="#20415D"/>
<path d="M101.067 13.1992H105.497C106.47 13.2185 106.999 13.5537 107.038 14.5688C107.058 15.0562 106.866 15.3914 106.47 15.5744C106.383 15.6129 106.278 15.6322 106.172 15.6322C105.796 15.6322 105.286 15.3933 104.67 14.8944C103.871 14.2529 103.003 13.8792 102.069 13.7752C101.154 13.6789 100.547 13.623 100.239 13.623L100.22 20.1129H100.586C101.115 20.1129 101.916 20.0262 103.003 19.8644C104.09 19.7025 104.774 19.6159 105.063 19.6062C105.352 19.6062 105.554 19.7218 105.68 19.9414C105.796 20.161 105.806 20.3999 105.718 20.6599C105.621 20.9181 105.42 21.0433 105.121 21.0337C104.813 21.024 104.11 20.9373 103.013 20.7948C101.906 20.6503 101.096 20.5752 100.567 20.5463H100.22L100.191 27.0458C100.758 27.0458 101.501 26.988 102.435 26.884C103.369 26.778 104.236 26.4159 105.036 25.7744C105.662 25.2774 106.162 25.027 106.548 25.027C106.654 25.027 106.749 25.0462 106.837 25.0848C107.232 25.2658 107.424 25.601 107.405 26.0903C107.366 27.1055 106.846 27.4503 105.864 27.4696H101.433L97.4751 27.4792L97.4945 13.1973L101.067 13.1992Z" fill="#20415D"/>
<path d="M115.733 13.3514C116.32 13.5132 116.878 13.8118 117.39 14.2606C117.9 14.7018 118.159 15.2951 118.159 16.0117C118.159 16.5279 117.909 16.8053 117.417 16.8342C116.917 16.8631 116.56 16.7186 116.337 16.3931C116.116 16.0772 115.99 15.5705 115.961 14.9002C115.932 14.2202 115.634 13.7906 115.066 13.6172C114.18 13.4458 113.352 13.6269 112.571 14.1624C111.8 14.7075 111.193 15.5031 110.751 16.5549C110.308 17.6086 110.154 18.8145 110.288 20.1822C110.434 21.6559 110.885 22.881 111.647 23.848C112.409 24.8151 113.36 25.3602 114.498 25.4758C115.634 25.5914 116.83 25.1214 118.099 24.0407C118.235 23.9444 118.359 23.9155 118.465 23.954C118.582 24.0022 118.638 24.0888 118.628 24.2218C118.58 24.2892 118.541 24.3662 118.483 24.4414C118.204 24.9287 117.76 25.4758 117.134 26.0691C116.518 26.6624 115.583 27.0843 114.351 27.3521C113.416 27.5235 112.473 27.4388 111.529 27.0939C110.585 26.7588 109.757 26.1269 109.044 25.208C108.321 24.2892 107.84 23.0448 107.6 21.4748C107.513 20.9393 107.513 20.2207 107.61 19.3308C107.697 18.4408 107.947 17.5219 108.362 16.5934C108.767 15.6553 109.412 14.8616 110.298 14.2009C111.174 13.5498 112.358 13.1857 113.853 13.1183C114.51 13.1222 115.136 13.1992 115.733 13.3514Z" fill="#20415D"/>
<path d="M125.604 27.4522L125.594 13.4766C125.488 13.4766 125.046 13.5344 124.265 13.6288C123.466 13.8002 122.656 14.2028 121.858 14.8443C121.049 15.4858 120.452 15.7054 120.057 15.5243C119.662 15.3432 119.47 15.008 119.489 14.5188C119.499 14.0314 119.634 13.6866 119.885 13.4747C120.125 13.2743 120.511 13.1588 121.03 13.1491H125.624V13.1395H128.349V13.1491H132.952C133.471 13.1588 133.857 13.2743 134.097 13.4747C134.338 13.6846 134.473 14.0295 134.493 14.5188C134.512 15.0061 134.32 15.3413 133.925 15.5243C133.53 15.7054 132.923 15.4665 132.124 14.7961C131.326 14.1258 130.516 13.7328 129.717 13.6288C129.11 13.5228 128.657 13.4766 128.349 13.4766L128.358 27.4619L125.604 27.4522Z" fill="#20415D"/>
<path d="M58.4471 34.4102C58.4471 34.6047 58.3057 34.7511 58.1157 34.782V34.7935C58.3057 34.8243 58.4471 34.9707 58.4471 35.1653V36.1285C58.4471 36.6197 58.1777 36.8817 57.6835 36.8817H56.4198C56.3674 36.8817 56.3364 36.8509 56.3364 36.7988V32.7805C56.3364 32.7227 56.3674 32.6977 56.4198 32.6977H57.6835C58.1777 32.6977 58.4471 32.9596 58.4471 33.4509V34.4102ZM57.7474 33.5934C57.7474 33.4566 57.6796 33.3834 57.5362 33.3834H57.0574V34.441H57.5362C57.6738 34.441 57.7474 34.3678 57.7474 34.2368V33.5934ZM57.7474 35.3425C57.7474 35.2058 57.6796 35.1326 57.5362 35.1326H57.0574V36.1901H57.5362C57.6738 36.1901 57.7474 36.1227 57.7474 35.9801V35.3425Z" fill="#20415D"/>
<path d="M64.2348 33.3006C64.2348 33.3526 64.2135 33.3892 64.1515 33.3892H62.8354V34.4352H63.8414C63.8937 34.4352 63.9247 34.4661 63.9247 34.5239V35.042C63.9247 35.0998 63.8937 35.1307 63.8414 35.1307H62.8354V36.1882H64.1515C64.2154 36.1882 64.2348 36.2152 64.2348 36.2711V36.795C64.2348 36.847 64.2135 36.8778 64.1515 36.8778H62.2152C62.1668 36.8778 62.1357 36.847 62.1357 36.795V32.7767C62.1357 32.7246 62.1668 32.6938 62.2152 32.6938H64.1515C64.2154 32.6938 64.2348 32.7246 64.2348 32.7767V33.3006Z" fill="#20415D"/>
<path d="M69.7448 36.8798C69.6983 36.8798 69.6711 36.8528 69.6614 36.8066L69.5141 36.0418H68.578L68.4365 36.8066C68.4249 36.8528 68.3997 36.8798 68.3531 36.8798H67.7891C67.731 36.8798 67.7058 36.849 67.7213 36.7912L68.5954 32.769C68.607 32.7169 68.6381 32.6958 68.6846 32.6958H69.4153C69.4618 32.6958 69.4947 32.7169 69.5044 32.769L70.3786 36.7912C70.3883 36.849 70.3689 36.8798 70.3049 36.8798H69.7448ZM69.0431 33.6108L68.7059 35.4369H69.3804L69.0431 33.6108Z" fill="#20415D"/>
<path d="M75.9065 32.6938C75.9646 32.6938 76.0111 32.7401 76.0111 32.7978V36.1246C76.0111 36.6159 75.7475 36.8778 75.2533 36.8778H74.6641C74.1698 36.8778 73.9062 36.6159 73.9062 36.1246V32.7978C73.9062 32.7401 73.9528 32.6938 74.0109 32.6938H74.5168C74.5749 32.6938 74.6214 32.7401 74.6214 32.7978V35.9782C74.6214 36.1189 74.6951 36.1882 74.8327 36.1882H75.106C75.2436 36.1882 75.3173 36.1208 75.3173 35.9782V32.7978C75.3173 32.7401 75.3638 32.6938 75.4219 32.6938H75.9065Z" fill="#20415D"/>
<path d="M81.6143 32.6938C81.6725 32.6938 81.6977 32.7246 81.6977 32.7767V33.3006C81.6977 33.3526 81.6706 33.3835 81.6143 33.3835H81.0038V36.795C81.0038 36.8528 80.9767 36.8778 80.9205 36.8778H80.372C80.3196 36.8778 80.2886 36.8509 80.2886 36.795V33.3854H79.6781C79.6257 33.3854 79.5947 33.3546 79.5947 33.3026V32.7786C79.5947 32.7266 79.6257 32.6958 79.6781 32.6958H81.6143V32.6938Z" fill="#20415D"/>
<path d="M87.6402 32.6938C87.7197 32.6938 87.7565 32.7401 87.7236 32.8133L86.7603 35.1422V36.7738C86.7603 36.8412 86.7234 36.8778 86.6556 36.8778H86.1497C86.0819 36.8778 86.0451 36.8412 86.0451 36.7738V35.1422L85.0818 32.8133C85.0508 32.7401 85.0876 32.6938 85.1651 32.6938H85.6923C85.7563 32.6938 85.7931 32.7208 85.8125 32.7767L86.4017 34.2773L86.9909 32.7767C87.0122 32.7189 87.0491 32.6938 87.1111 32.6938H87.6402Z" fill="#20415D"/>
<path d="M97.7208 36.8798C97.6743 36.8798 97.6472 36.8528 97.6375 36.8066L97.4902 36.0418H96.554L96.4126 36.8066C96.4009 36.8528 96.3757 36.8798 96.3292 36.8798H95.7652C95.707 36.8798 95.6819 36.849 95.6974 36.7912L96.5715 32.769C96.5831 32.7169 96.6141 32.6958 96.6606 32.6958H97.3913C97.4379 32.6958 97.4708 32.7169 97.4805 32.769L98.3546 36.7912C98.3643 36.849 98.3449 36.8798 98.281 36.8798H97.7208ZM97.0212 33.6108L96.6839 35.4369H97.3584L97.0212 33.6108Z" fill="#20415D"/>
<path d="M103.993 34.0134C103.993 34.0654 103.962 34.0962 103.91 34.0962H103.383C103.324 34.0962 103.299 34.0654 103.299 34.0134V33.5954C103.299 33.4586 103.226 33.3854 103.088 33.3854H102.815C102.673 33.3854 102.603 33.4586 102.603 33.5954V35.9802C102.603 36.1208 102.677 36.1901 102.815 36.1901H103.088C103.226 36.1901 103.299 36.1227 103.299 35.9802V35.5622C103.299 35.5101 103.326 35.4793 103.383 35.4793H103.91C103.962 35.4793 103.993 35.5101 103.993 35.5622V36.1266C103.993 36.6178 103.724 36.8798 103.235 36.8798H102.646C102.152 36.8798 101.882 36.6178 101.882 36.1266V33.447C101.882 32.9558 102.152 32.6938 102.646 32.6938H103.235C103.726 32.6938 103.993 32.9558 103.993 33.447V34.0134Z" fill="#20415D"/>
<path d="M109.608 36.8798C109.562 36.8798 109.534 36.8528 109.525 36.8066L109.377 36.0418H108.441L108.3 36.8066C108.288 36.8528 108.263 36.8798 108.216 36.8798H107.652C107.594 36.8798 107.569 36.849 107.585 36.7912L108.459 32.769C108.47 32.7169 108.501 32.6958 108.548 32.6958H109.279C109.325 32.6958 109.358 32.7169 109.368 32.769L110.242 36.7912C110.252 36.849 110.232 36.8798 110.168 36.8798H109.608ZM108.908 33.6108L108.571 35.4369H109.246L108.908 33.6108Z" fill="#20415D"/>
<path d="M113.77 32.7786C113.77 32.7266 113.797 32.6958 113.853 32.6958H115.117C115.611 32.6958 115.874 32.9635 115.874 33.4547V36.1285C115.874 36.6197 115.611 36.8817 115.117 36.8817H113.853C113.795 36.8817 113.77 36.8547 113.77 36.7989V32.7786ZM114.969 36.1901C115.107 36.1901 115.181 36.1227 115.181 35.9802V33.5992C115.181 33.4586 115.107 33.3854 114.969 33.3854H114.485V36.1901H114.969Z" fill="#20415D"/>
<path d="M121.664 33.3006C121.664 33.3526 121.642 33.3892 121.58 33.3892H120.264V34.4352H121.27C121.322 34.4352 121.353 34.4661 121.353 34.5239V35.042C121.353 35.0998 121.322 35.1307 121.27 35.1307H120.264V36.1882H121.58C121.644 36.1882 121.664 36.2152 121.664 36.2711V36.795C121.664 36.847 121.642 36.8778 121.58 36.8778H119.644C119.597 36.8778 119.564 36.847 119.564 36.795V32.7767C119.564 32.7246 119.595 32.6938 119.644 32.6938H121.58C121.644 32.6938 121.664 32.7246 121.664 32.7767V33.3006Z" fill="#20415D"/>
<path d="M128.194 32.6938C128.261 32.6938 128.298 32.7304 128.298 32.7978V36.7738C128.298 36.8412 128.261 36.8778 128.194 36.8778H127.703C127.635 36.8778 127.599 36.8412 127.599 36.7738V34.4198H127.562L127.04 36.7854C127.025 36.849 126.988 36.8798 126.924 36.8798H126.666C126.602 36.8798 126.565 36.849 126.55 36.7854L126.029 34.4198H125.992V36.7738C125.992 36.8412 125.955 36.8778 125.887 36.8778H125.403C125.335 36.8778 125.298 36.8412 125.298 36.7738V32.7978C125.298 32.7304 125.335 32.6938 125.403 32.6938H126.098C126.162 32.6938 126.199 32.7246 126.215 32.7882L126.798 35.3926L127.383 32.7882C127.399 32.7246 127.436 32.6938 127.5 32.6938H128.194Z" fill="#20415D"/>
<path d="M134.399 32.6938C134.479 32.6938 134.516 32.7401 134.483 32.8133L133.52 35.1422V36.7738C133.52 36.8412 133.483 36.8778 133.415 36.8778H132.909C132.841 36.8778 132.804 36.8412 132.804 36.7738V35.1422L131.841 32.8133C131.81 32.7401 131.847 32.6938 131.924 32.6938H132.452C132.516 32.6938 132.552 32.7208 132.572 32.7767L133.161 34.2773L133.75 32.7767C133.772 32.7189 133.808 32.6938 133.87 32.6938H134.399Z" fill="#20415D"/>
</svg>
